<?xml version="1.0" encoding="utf-8"?>
<!-- Generated by IcoMoon.io -->
<svg version="1.1" xmlns="http://www.w3.org/2000/svg" xmlns:xlink="http://www.w3.org/1999/xlink" width="210" height="450" viewBox="0 0 210 450">
<svg id="icon-icon-01" width="30" height="30" viewBox="0 0 30 30" x="0" y="0">
<path fill="#2ba1fc" d="M23.893 0h-17.893c0 0.027 0 0.054 0 0.080 0 0.589-0.509 1.071-1.179 1.125v27.696c0.67 0.027 1.205 0.509 1.205 1.098h17.893c0-0.027 0-0.027 0-0.054 0-0.616 0.536-1.098 1.232-1.125v-27.696c-0.67 0-1.259-0.509-1.259-1.125z"></path>
<path fill="#fff" d="M7.339 3.054h15v22.286h-15v-22.286z"></path>
<path fill="#fff" d="M15.83 27.643c0 0.562-0.456 1.018-1.018 1.018s-1.018-0.456-1.018-1.018c0-0.562 0.456-1.018 1.018-1.018s1.018 0.456 1.018 1.018z"></path>
<path fill="#2ba1fc" d="M19.634 7.661l-3.348 6.241h2.679v1.393h-3.187v1.902h3.134v1.393h-3.134v2.759h-1.714v-2.786h-3.214v-1.393h3.241v-1.902h-3.214v-1.393h2.732l-3.348-6.214h1.982l2.33 4.848c0.134 0.268 0.268 0.616 0.455 1.018h0.027c0.107-0.348 0.268-0.67 0.455-1.071l2.33-4.795h1.795z"></path>
</svg>
<svg id="icon-icon-02" width="30" height="30" viewBox="0 0 30 30" x="60" y="0">
<path fill="#2ba1fc" d="M3.516 0v30h22.969v-21.258l-8.203-8.742z"></path>
<path fill="#fff" d="M17.953 2.039v6.75h6.375z"></path>
<path fill="#fff" d="M12.422 24.445c0.445 0 0.82-0.445 0.82-1.008v-11.414c0-0.398-0.188-0.773-0.492-0.914-0.305-0.164-0.656-0.070-0.891 0.211l-2.813 3.422c-0.328 0.398-0.328 1.031 0 1.406 0.328 0.398 0.844 0.398 1.148 0l1.406-1.711v9c0.023 0.563 0.398 1.008 0.82 1.008v0zM19.008 19.336l-1.406 1.711v-9.023c0-0.539-0.375-1.008-0.82-1.008s-0.82 0.445-0.82 1.008v11.414c0 0.398 0.187 0.773 0.492 0.914 0.094 0.047 0.211 0.070 0.305 0.070 0.211 0 0.422-0.094 0.586-0.281l2.813-3.422c0.328-0.398 0.328-1.031 0-1.406-0.305-0.375-0.82-0.375-1.148 0.023v0z"></path>
</svg>
<svg id="icon-icon-03" width="30" height="30" viewBox="0 0 30 30" x="120" y="0">
<path fill="#ff719c" d="M15.727 16.195c-1.547-1.102-3.141-2.555-3.328-5.016-0.68 0.445-1.336 1.055-1.922 1.852-0.164 0.211-0.352 0.375-0.539 0.586-2.25-3.023-4.125-3.914-6.422-3.141-2.109 0.68-3.562 3.188-3.516 5.93 0.047 2.438 1.523 3.867 3.328 5.18 2.297 1.641 4.5 3.352 6.844 5.133 1.008-0.961 2.156-2.203 3.445-3.258 1.477-1.195 3.234-2.086 4.617-3.375 0.398-0.375 0.703-0.797 0.961-1.266-1.148-0.914-2.297-1.781-3.469-2.625z"></path>
<path fill="#ff719c" d="M22.172 19.008c-1.875-1.406-3.68-2.813-5.508-4.125-1.453-1.055-2.648-2.203-2.695-4.148-0.047-2.203 1.125-4.219 2.813-4.781 1.875-0.609 3.352 0.094 5.156 2.531 0.164-0.164 0.305-0.305 0.445-0.469 1.758-2.344 4.172-2.836 6-1.266 1.969 1.688 2.18 5.18 0.258 6.938-1.125 1.031-2.531 1.758-3.727 2.719-1.008 0.82-1.922 1.828-2.742 2.602z"></path>
</svg>
<svg id="icon-icon-04" width="30" height="30" viewBox="0 0 30 30" x="180" y="0">
<path fill="#2ba1fc" d="M7.266 13.266c0 0-6.82-0.422-7.242 5.391-0.422 5.836 3.75 5.836 4.594 5.836s19.43 0 19.43 0 1.008 0 1.758 0c1.195 0 4.195-1.547 4.195-4.5s-2.602-7.102-7.336-4.828c0 0 1.125 0.188 1.875 0.305 0.75 0.141 2.531 0.797 2.859 2.438 0.445 2.227-0.281 4.664-1.945 4.664-1.734 0-18.469-0.305-19.359-0.305-2.531 0-3.914-0.938-3.516-3.563 0.398-2.695 3.258-3.305 3.961-3.328 1.242-0.023 2.133 0.797 4.688 3.117 0 0-1.336-2.555-1.758-3.844-0.445-1.383 0.211-3.914 1.43-5.109s4.875-3.773 8.883 0.234c0 0-0.797-3.469-3.68-3.844-2.906-0.375-4.781-0.047-7.055 2.227s-1.781 5.109-1.781 5.109z"></path>
<path fill="#2ba1fc" d="M23.883 13.242h1.242c-0.375-2.109-1.992-3.797-4.055-4.266v1.266c1.383 0.422 2.461 1.57 2.813 3z"></path>
<path fill="#2ba1fc" d="M26.086 13.242h1.242c-0.422-3.305-2.977-5.953-6.258-6.469v1.242c2.578 0.492 4.617 2.578 5.016 5.227z"></path>
</svg>
<svg id="icon-icon-05" width="30" height="30" viewBox="0 0 30 30" x="0" y="60">
<path fill="#2ba1fc" d="M4.75 9.333c0.75 0.333 1.5 0.583 2.25 0.833 1.5 0.583 3 1.167 4.417 1.75 0.333 0.167 0.5 0 0.667-0.25 2.75-3.5 5.5-7 8.25-10.583 0.333-0.417 0.333-0.417 0.667 0 2.417 2.667 4.833 5.417 7.25 8.083 0.25 0.25 0.333 1.167 0.167 1.417-0.083 0.083-0.25 0.167-0.417 0.167-0.917 0.167-0.917 0.167-0.917 1.083 0 2.167 0 4.333 0 6.5 0 0.417-0.083 0.667-0.583 0.833-2.5 0.583-5 1.167-7.5 1.75-1.75 0.417-3.417 0.833-5.167 1.25-0.25 0.083-0.5 0-0.667-0.083-2.417-1.25-4.75-2.5-7.167-3.75-0.333-0.167-0.417-0.333-0.417-0.667 0-2.167 0-4.333 0-6.417 0-0.25-0.083-0.5-0.333-0.583-0.583-0.25-0.667-0.5-0.5-1.333zM27.417 9.833c-0.083-0.167-0.083-0.167-0.167-0.25-2.083-2.333-4.167-4.667-6.25-7-0.167-0.167-0.333-0.083-0.5 0.167-2.417 3.083-4.833 6.167-7.25 9.167-0.083 0.083-0.083 0.25-0.25 0.417 0.25-0.083 0.417-0.083 0.5-0.083 0.167 0 0.25 0 0.417-0.083 0.5-0.083 0.5-0.083 0.5 0.5 0 2.667 0 5.25 0 7.917 0 0.333 0.083 0.417 0.417 0.333 1-0.25 2-0.5 3.083-0.75 0.667-0.167 0.667-0.167 0.667-0.833 0-2 0-4 0-6 0-0.25 0-0.5 0.333-0.5 1-0.167 2-0.333 3.083-0.5 0.5-0.083 0.583-0.083 0.583 0.5 0 1.917 0 3.75 0 5.667 0 0.583 0 0.583 0.583 0.417 0.833-0.167 1.667-0.417 2.5-0.583 0.417-0.083 0.5-0.25 0.5-0.667 0-2.333 0-4.75 0-7.083 0-0.417 0.167-0.5 0.5-0.583 0.25 0 0.5-0.083 0.75-0.167zM8.333 13.167c0 0.083-0.083 0.167-0.083 0.25 0 0.833 0 1.667 0 2.5 0 0.167 0.167 0.333 0.25 0.417 0.667 0.333 1.333 0.667 2 1 0.083 0.083 0.25 0.083 0.333 0.083 0-0.083 0.083-0.083 0.083-0.083 0-0.583 0-1.25 0-1.833 0-0.417 0.083-0.917-0.083-1.167s-0.667-0.333-1.083-0.5c-0.25-0.083-0.583-0.25-0.833-0.333-0.167-0.25-0.333-0.25-0.583-0.333z"></path>
<path fill="#2ba1fc" d="M20 0.75c-0.083 0.167-0.167 0.25-0.25 0.417-2.583 3.25-5.167 6.583-7.667 9.833-0.25 0.333-0.417 0.333-0.833 0.25-2-0.833-4.083-1.583-6.083-2.417-0.5-0.167-0.333-0.333-0.167-0.583 1.917-2.25 3.917-4.5 5.833-6.833 0.333-0.417 0.667-0.833 1.083-1.25 0.167-0.083 0.417-0.167 0.583-0.167 2.417 0.167 4.75 0.417 7.167 0.667 0.083 0 0.167 0.083 0.333 0.083z"></path>
<path fill="#2ba1fc" d="M17.833 26.833c0.167-0.667 0.333-1.5 0.5-2.333 0.083-0.333 0.167-0.667 0.25-0.917 0.333-0.75 1.167-1.167 1.917-1 1.75 0.333 3.417 0.75 5.083 1.167 0.667 0.167 0.667 0.25 0.667 0.917 0 0.083 0.167 0.333 0.25 0.333 0.833 0.167 1.667 0.417 2.5 0.583 0.417 0.083 0.5 0.25 0.417 0.667v0c-0.167 0.75-0.25 0.833-1 0.583-0.75-0.167-1.417-0.333-2.167-0.5-0.25-0.083-0.417 0-0.417 0.25-0.25 1.25-0.417 1 0.75 1.333 0.667 0.167 1.25 0.333 1.917 0.417 0.25 0.083 0.333 0.167 0.333 0.5-0.167 0.917-0.167 0.917-1.083 0.75-0.667-0.167-1.333-0.25-1.917-0.417-0.333-0.083-0.583-0.167-0.667 0.333-0.083 0.417-0.333 0.5-0.75 0.417-1.333-0.333-2.667-0.583-4.083-0.917-0.333-0.083-0.75-0.167-1.083-0.25-0.833-0.083-1.417-0.833-1.417-1.917z"></path>
<path fill="#2ba1fc" d="M5.083 14.75c0 0.667 0 1.333 0 2 0 0.083-0.167 0.25-0.333 0.333-1.75 1.25-2.5 3.083-2 5.083 0.5 1.917 1.667 3.167 3.417 3.917 1.667 0.75 3.333 0.75 5 0.25 1.333-0.417 2.5-1 3.833-1.5 0.75-0.333 1.5-0.583 2.333-0.583 0.333 0 0.417 0.083 0.333 0.417-0.083 0.417-0.167 0.833-0.25 1.167-0.083 0.167-0.167 0.333-0.333 0.417-0.917 0.417-1.917 0.75-2.833 1.167-1.917 0.833-3.833 1.333-6 1.25-3.417-0.167-6.417-2.417-7.417-5.667-0.833-2.833 0.25-5.917 2.833-7.583 0.417-0.25 0.833-0.5 1.25-0.75 0.083 0 0.083 0.083 0.167 0.083z"></path>
</svg>
<svg id="icon-icon-06" width="30" height="30" viewBox="0 0 30 30" x="60" y="60">
<path fill="#f8b62a" d="M24.891 3.727h-1.664v1.336c0 1.594-1.102 2.906-2.461 2.906s-2.461-1.313-2.461-2.906v-1.336h-0.891v1.336c0.047 1.594-1.078 2.906-2.414 2.906s-2.461-1.313-2.461-2.906v-1.336h-0.891v1.336c0 1.594-1.102 2.906-2.438 2.906s-2.461-1.313-2.461-2.906v-1.336h-1.641c-0.727 0-1.336 0.703-1.336 1.57v23.133c0 0.867 0.586 1.57 1.336 1.57h19.781c0.727 0 1.336-0.703 1.336-1.57v-23.133c-0.023-0.867-0.609-1.57-1.336-1.57z"></path>
<path fill="#fff" d="M22.711 14.25h-15.422c-0.164 0-0.305-0.164-0.305-0.352v-1.828c0-0.188 0.141-0.352 0.305-0.352h15.422c0.164 0 0.305 0.164 0.305 0.352v1.828c0.023 0.187-0.117 0.352-0.305 0.352z"></path>
<path fill="#fff" d="M22.711 19.922h-15.422c-0.164 0-0.305-0.164-0.305-0.352v-1.828c0-0.188 0.141-0.352 0.305-0.352h15.422c0.164 0 0.305 0.164 0.305 0.352v1.828c0.023 0.188-0.117 0.352-0.305 0.352z"></path>
<path fill="#fff" d="M22.711 25.594h-15.422c-0.164 0-0.305-0.164-0.305-0.352v-1.828c0-0.187 0.141-0.352 0.305-0.352h15.422c0.164 0 0.305 0.164 0.305 0.352v1.828c0.023 0.188-0.117 0.352-0.305 0.352z"></path>
<path fill="#f8b62a" d="M10.031 6.797h-1.711c-0.188 0-0.328-0.188-0.328-0.398v-6c-0.023-0.211 0.141-0.398 0.328-0.398h1.711c0.187 0 0.328 0.188 0.328 0.398v6c0.023 0.211-0.117 0.398-0.328 0.398z"></path>
<path fill="#f8b62a" d="M15.844 6.797h-1.711c-0.188 0-0.328-0.188-0.328-0.398v-6c0-0.211 0.141-0.398 0.352-0.398h1.711c0.188 0 0.328 0.188 0.328 0.398v6c0 0.211-0.141 0.398-0.352 0.398z"></path>
<path fill="#f8b62a" d="M21.703 6.797h-1.711c-0.188 0-0.328-0.188-0.328-0.398v-6c0-0.211 0.164-0.398 0.328-0.398h1.711c0.187 0 0.328 0.188 0.328 0.398v6c0 0.211-0.141 0.398-0.328 0.398z"></path>
</svg>
<svg id="icon-icon-07" width="30" height="30" viewBox="0 0 30 30" x="120" y="60">
<path fill="#f8b62a" d="M30 15c0 8.284-6.716 15-15 15s-15-6.716-15-15c0-8.284 6.716-15 15-15s15 6.716 15 15z"></path>
<path fill="#fff" d="M15.375 15v-12.328c-6.797 0-12.328 5.508-12.328 12.328s5.508 12.328 12.328 12.328c3.141 0 6.023-1.195 8.203-3.141l-8.203-9.188z"></path>
</svg>
<svg id="icon-icon-08" width="30" height="30" viewBox="0 0 30 30" x="180" y="60">
<path fill="#2ba1fc" d="M19.758 6.75c0-0.070 0-0.141 0-0.211h-16.734c-1.664 0-3.023 1.359-3.023 3.023v15.773c0 1.664 1.359 3.023 3.023 3.023h20.719c1.664 0 3.023-1.359 3.023-3.023v-13.828c-0.586 0.234-1.219 0.352-1.875 0.352-2.836 0.023-5.133-2.273-5.133-5.109z"></path>
<path fill="#2ba1fc" d="M30 6.75c0-2.836-2.297-5.109-5.133-5.109-2.766 0-4.992 2.18-5.109 4.922h1.406c0.117-1.969 1.734-3.516 3.703-3.516 2.062 0 3.727 1.664 3.727 3.727 0 0.375-0.047 0.727-0.164 1.078-0.539-0.984-1.57-2.297-3.281-2.297-0.094 0-0.141 0-0.211 0v-1.289l-2.016 1.805 0.563 0.492h0.258c0.422 0 0.82 0.094 1.195 0.258v-0.258c0.609-0.047 2.039 0.094 2.766 2.578l0.023 0.023c-0.281 0.328-0.586 0.586-0.961 0.797v1.547c1.898-0.75 3.234-2.602 3.234-4.758z"></path>
<path fill="#248fcd" d="M24.938 6.797c-0.375-0.164-0.773-0.258-1.195-0.258h-0.258l1.453 1.313v-1.055z"></path>
<path fill="#2ba1fc" d="M24.867 10.477c-2.063 0-3.727-1.664-3.727-3.727 0-0.070 0-0.141 0-0.211h-1.406c0 0.070 0 0.141 0 0.211 0 2.836 2.297 5.133 5.133 5.133 0.656 0 1.312-0.141 1.875-0.352v-1.547c-0.539 0.305-1.172 0.492-1.875 0.492z"></path>
<path fill="#fff" d="M23.484 13.594h-16.148c-0.398-0.727-1.172-1.242-2.063-1.242-1.289 0-2.344 1.055-2.344 2.344s1.055 2.344 2.344 2.344c0.891 0 1.664-0.516 2.063-1.242h16.148v-2.203z"></path>
<path fill="#fff" d="M23.484 19.992h-16.148c-0.398-0.727-1.172-1.242-2.063-1.242-1.289 0-2.344 1.055-2.344 2.344s1.055 2.344 2.344 2.344c0.891 0 1.664-0.516 2.063-1.242h16.148v-2.203z"></path>
</svg>
<svg id="icon-icon-09" width="30" height="30" viewBox="0 0 30 30" x="0" y="120">
<path fill="#2ba1fc" d="M12.633 7.922h-12.633v4.734h12.633v-4.734zM22.102 0.281c1.57-0.75 3.75 0.070 4.5 1.641s0.070 3.797-1.781 4.688c-1.57 0.75-7.734 2.109-8.484 0.539s4.195-6.117 5.766-6.867v0 0 0zM24.141 4.828c0.797-0.375 1.125-1.242 0.75-2.039s-1.312-0.844-2.109-0.469-3.984 2.672-3.609 3.445c0.375 0.82 4.172-0.562 4.969-0.938v0 0 0zM12.633 14.227h-11.063v15.773h11.063v-15.773zM30 7.922h-12.633v4.734h12.633v-4.734zM28.43 14.227h-11.063v15.773h11.063v-15.773zM3.422 1.922c0.727-1.57 2.906-2.391 4.477-1.641s6.516 5.297 5.766 6.867c-0.75 1.57-6.914 0.211-8.484-0.539-1.852-0.891-2.508-3.117-1.758-4.688v0 0 0zM5.859 4.828c0.797 0.375 4.594 1.734 4.969 0.961 0.375-0.797-2.813-3.070-3.609-3.445s-1.734-0.328-2.109 0.469c-0.375 0.773-0.023 1.641 0.75 2.016v0 0 0z"></path>
</svg>
<svg id="icon-icon-10" width="30" height="30" viewBox="0 0 30 30" x="60" y="120">
<path fill="#2ba1fc" d="M28.453 24.891h-25.359v-21.328c0-0.844-0.703-1.547-1.547-1.547v0c-0.844 0-1.547 0.703-1.547 1.547v22.875c0 0.844 0.703 1.547 1.547 1.547v0h26.906c0.844 0 1.547-0.703 1.547-1.547s-0.703-1.547-1.547-1.547z"></path>
<path fill="#2ba1fc" d="M10.453 24.141h-4.617c-0.352 0-0.633-0.281-0.633-0.633v-5.109c0-0.352 0.281-0.633 0.633-0.633h4.617c0.352 0 0.633 0.281 0.633 0.633v5.086c0 0.352-0.281 0.656-0.633 0.656z"></path>
<path fill="#2ba1fc" d="M18.328 24.141h-4.617c-0.352 0-0.633-0.281-0.633-0.633v-17.766c0-0.352 0.281-0.633 0.633-0.633h4.617c0.352 0 0.633 0.281 0.633 0.633v17.742c0 0.352-0.281 0.656-0.633 0.656z"></path>
<path fill="#2ba1fc" d="M26.203 24.141h-4.617c-0.352 0-0.633-0.281-0.633-0.633v-11.789c0-0.352 0.281-0.633 0.633-0.633h4.617c0.352 0 0.633 0.281 0.633 0.633v11.766c0.023 0.352-0.281 0.656-0.633 0.656z"></path>
</svg>
<svg id="icon-icon-11" width="30" height="30" viewBox="0 0 30 30" x="120" y="120">
<path fill="#2ba1fc" d="M23.789 30h-18.117c-0.703 0-1.266-0.633-1.266-1.406v-27.305c0-0.773 0.563-1.406 1.266-1.406h18.164c0.703 0 1.266 0.633 1.266 1.406v27.305c-0.047 0.773-0.609 1.406-1.313 1.406z"></path>
<path fill="#fff" d="M22.172 24.164h-14.883c-0.234 0-0.422-0.211-0.422-0.469v-20.695c0-0.258 0.188-0.469 0.422-0.469h14.906c0.234 0 0.422 0.211 0.422 0.469v20.672c-0.023 0.281-0.211 0.492-0.445 0.492z"></path>
<path fill="#fff" d="M14.742 27.352c0.375 0 0.703 0.375 0.703 0.844h1.195c0-1.289-0.844-2.32-1.875-2.32s-1.875 1.031-1.875 2.32h1.195c-0.047-0.469 0.258-0.844 0.656-0.844z"></path>
<path fill="#2ba1fc" d="M20.438 11.391l-2.531-3.844-2.531 3.844h1.734v9.516h1.617v-9.516z"></path>
<path fill="#2ba1fc" d="M9.023 17.086l2.531 3.82 2.531-3.82h-1.734v-9.539h-1.617v9.539z"></path>
</svg>
<svg id="icon-icon-12" width="30" height="30" viewBox="0 0 30 30" x="180" y="120">
<path fill="#2ba1fc" d="M16 3c-0.583-0.583-1.333-0.583-1.917 0l-8.25 8.25c-0.583 0.583-0.583 1.333 0 1.917 0.25 0.25 0.583 0.417 1 0.417 0.333 0 0.667-0.167 1-0.417l8.25-8.25c0.417-0.583 0.417-1.417-0.083-1.917z"></path>
<path fill="#2ba1fc" d="M23.417 14.417c-0.417 0-0.833-0.167-1.083-0.5l-8.25-8.25c-0.667-0.667-0.667-1.583 0-2.25 0.25-0.25 0.667-0.417 1.083-0.417s0.833 0.167 1.083 0.5l8.25 8.25c0.667 0.667 0.667 1.583 0 2.25-0.25 0.25-0.667 0.417-1.083 0.417z"></path>
<path fill="#2ba1fc" d="M15.167 3.25c0.333 0 0.667 0.167 1 0.417l8.25 8.25c0.583 0.583 0.583 1.333 0 1.917-0.25 0.25-0.583 0.417-1 0.417-0.333 0-0.667-0.167-1-0.417l-8.25-8.25c-0.583-0.583-0.583-1.333 0-1.917 0.333-0.25 0.667-0.417 1-0.417zM15.167 2.833c-0.5 0-0.917 0.167-1.25 0.5-0.75 0.75-0.75 1.833 0 2.5l8.25 8.25c0.333 0.333 0.75 0.5 1.25 0.5s0.917-0.167 1.25-0.5c0.333-0.333 0.5-0.75 0.5-1.25s-0.167-0.917-0.5-1.25l-8.25-8.25c-0.333-0.333-0.75-0.5-1.25-0.5v0z"></path>
<path fill="#2ba1fc" d="M24.167 27.333h-18.333c-0.667 0-1.25-0.417-1.333-0.917l-2.5-10.25h26.083l-2.5 10.25c-0.25 0.5-0.75 0.917-1.417 0.917z"></path>
<path fill="#2ba1fc" d="M1.917 16c-0.833 0-1.583-0.75-1.583-1.583v-1.333c0-0.833 0.75-1.583 1.583-1.583h26.083c0.833 0 1.583 0.75 1.583 1.583v1.333c0 0.833-0.75 1.583-1.583 1.583h-26.083z"></path>
<path fill="#2ba1fc" d="M28.083 11.667c0.75 0 1.333 0.583 1.333 1.333v1.333c0 0.75-0.583 1.333-1.333 1.333h-26.167c-0.75 0-1.333-0.583-1.333-1.333v-1.333c0-0.75 0.583-1.333 1.333-1.333h26.167zM28.083 11.25h-26.167c-1 0-1.75 0.833-1.75 1.75v1.333c0 1 0.833 1.75 1.75 1.75h26.083c1 0 1.75-0.833 1.75-1.75v-1.333c0.083-1-0.75-1.75-1.667-1.75v0z"></path>
<path fill="#fff" d="M19.667 17l-5.417 5.417-2.583-2.583-1.5 1.5 4.083 4.083 6.917-7z"></path>
</svg>
<svg id="icon-icon-13" width="30" height="30" viewBox="0 0 30 30" x="0" y="180">
<path fill="#f8b62a" d="M23.167 2.75h-6.833c0 0.75-0.583 1.333-1.333 1.333s-1.333-0.583-1.333-1.333h-6.833c-1.5 0-2.75 1.25-2.75 2.75v21.833c0 1.5 1.25 2.75 2.75 2.75h16.333c1.5 0 2.75-1.25 2.75-2.75v-21.917c0-1.5-1.25-2.667-2.75-2.667z"></path>
<path fill="#fff" d="M23.167 27.917h-16.333c-0.417 0-0.667-0.25-0.667-0.667v-21.833c0-0.417 0.25-0.667 0.667-0.667h16.333c0.417 0 0.667 0.25 0.667 0.667v21.833c0 0.417-0.25 0.667-0.667 0.667z"></path>
<path fill="#f8b62a" d="M10.25 7c-0.833 0-1.583-0.667-1.583-1.583v-2.917h5.167v0.167c0 0.667 0.5 1.167 1.167 1.167s1.167-0.5 1.167-1.167v-0.167h5.167v2.917c0 0.833-0.667 1.583-1.583 1.583h-9.5z"></path>
<path fill="#f8b62a" d="M21.167 2.75v2.75c0 0.75-0.583 1.333-1.333 1.333h-9.583c-0.75 0-1.333-0.583-1.333-1.333v-2.75h4.75c0 0.75 0.583 1.333 1.333 1.333s1.333-0.583 1.333-1.333h4.833zM21.583 2.333h-5.583v0.417c0 0.5-0.417 0.917-0.917 0.917s-0.917-0.417-0.917-0.917v-0.417h-5.583v3.167c0 1 0.833 1.75 1.75 1.75h9.583c1 0 1.75-0.833 1.75-1.75v-3.167h-0.083z"></path>
<path fill="#f8b62a" d="M15 0c-1.5 0-2.75 1.25-2.75 2.75s1.25 2.75 2.75 2.75 2.75-1.25 2.75-2.75-1.25-2.75-2.75-2.75zM15 4.083c-0.75 0-1.333-0.583-1.333-1.333s0.583-1.333 1.333-1.333 1.333 0.583 1.333 1.333-0.583 1.333-1.333 1.333z"></path>
<path fill="#f8b62a" d="M12.917 13.667h8.167v1.333h-8.167v-1.333z"></path>
<path fill="#f8b62a" d="M8.833 12.917h2.75v2.75h-2.75v-2.75z"></path>
<path fill="#f8b62a" d="M12.917 19.75h8.167v1.333h-8.167v-1.333z"></path>
<path fill="#f8b62a" d="M8.833 19.083h2.75v2.75h-2.75v-2.75z"></path>
</svg>
<svg id="icon-icon-14" width="30" height="30" viewBox="0 0 30 30" x="60" y="180">
<path fill="#2ba1fc" d="M24.417 3.75h-3.75v-1.917c0-1.167-1-1.833-1.833-1.833h-7.5c-0.917 0-1.833 0.583-1.833 1.833v1.917h-3.917c-1 0-1.833 0.833-1.833 1.833v22.5c0 1 0.833 1.833 1.833 1.833h18.75c1 0 1.833-0.833 1.833-1.833v-22.5c0.083-1-0.75-1.833-1.75-1.833v0zM11.25 1.833h7.5v3.75h-7.5v-3.75zM20.667 18.75c0.083 3.833-3.75 3.75-3.75 3.75h-5.667c0-1.25 0-1.917 0-1.917s4.667 0 5.667 0c0.917 0 1.917-0.75 1.917-1.833 0-1.583-1.917-1.917-1.917-1.917h-3.75l0.333 0.75c0.583 1.5 0 1.333 0 1.333s-2.667-1.417-3.583-2c-0.917-0.667-0.583-1.333 0.417-2 1-0.75 2.167-1.333 2.833-1.75s0.417 0.333 0.333 0.833c-0.167 0.417-0.333 1-0.333 1h3.75c3.833 0 3.75 3.75 3.75 3.75v0z"></path>
</svg>
<svg id="icon-icon-15" width="30" height="30" viewBox="0 0 30 30" x="120" y="180">
<path fill="#40cfb3" d="M0 10.5c0-0.583 0.083-1 0.333-1.25s0.667-0.333 1.333-0.333h4.167v16.25h-1.833c-0.5 0-0.917 0-1.417 0s-0.75 0-1 0c-0.583 0-1-0.083-1.25-0.333-0.25-0.167-0.333-0.583-0.333-1.25v-4.667c0-0.25 0-0.417 0.083-0.5s0.25-0.167 0.5-0.25c0.083 0 0.167 0 0.333-0.083s0.333-0.167 0.417-0.333c0.167-0.167 0.25-0.333 0.417-0.583 0.083-0.25 0.167-0.5 0.167-0.833 0-0.5-0.167-0.917-0.417-1.167s-0.583-0.417-0.833-0.5-0.417-0.083-0.5-0.25c-0.083 0-0.167-0.167-0.167-0.417v-3.5zM2.667 7.417v-0.833c0-0.417 0.167-0.833 0.5-1.167 0.333-0.417 0.75-0.583 1.167-0.583h4.5v2.583h-6.167zM29.25 14.5c-0.167 0.083-0.333 0.167-0.333 0.25-0.083 0.167-0.083 0.333-0.083 0.5s0 0.333 0.083 0.5 0.167 0.25 0.333 0.333 0.333 0.167 0.417 0.417c0.083 0.167 0.167 0.417 0.167 0.583 0 0.25 0 0.417-0.083 0.583s-0.167 0.333-0.333 0.417c-0.417 0.25-0.667 0.583-0.667 0.917s0.25 0.667 0.667 1c0.083 0.083 0.167 0.167 0.25 0.333s0.083 0.333 0.083 0.5-0.083 0.333-0.167 0.417c-0.083 0.167-0.25 0.167-0.417 0.167h-1.75c-0.167 0-0.167 0-0.25 0 0 0 0-0.083 0.083-0.083 0.083-0.083 0.083-0.083 0.167-0.167s0.083-0.167 0.167-0.25c0.083-0.333 0.083-0.583 0-0.75-0.083-0.25-0.333-0.417-0.583-0.583-0.167-0.083-0.333-0.25-0.333-0.417-0.083-0.167-0.083-0.333-0.083-0.583 0-0.167 0.083-0.333 0.083-0.5 0.083-0.167 0.167-0.25 0.333-0.333s0.333-0.167 0.417-0.333 0.167-0.333 0.167-0.583c0-0.167 0-0.333-0.083-0.5s-0.167-0.25-0.333-0.333-0.333-0.25-0.417-0.417-0.167-0.333-0.167-0.583c0-0.25 0.083-0.417 0.167-0.667s0.25-0.333 0.417-0.5c0.167-0.083 0.25-0.167 0.333-0.333s0.167-0.333 0.167-0.5 0-0.333-0.083-0.5c-0.083-0.167-0.25-0.333-0.417-0.417-0.25-0.083-0.333-0.25-0.5-0.5-0.083-0.167-0.167-0.417-0.167-0.667s0.083-0.417 0.167-0.583c0.083-0.167 0.25-0.333 0.417-0.417 0.333-0.167 0.583-0.5 0.583-0.833s0-0.667-0.083-0.917-0.167-0.417-0.417-0.583-0.5-0.167-0.75-0.167h-15.667v-2.583h18.333c0.167 0 0.25 0.083 0.417 0.167 0.083 0.083 0.167 0.25 0.25 0.417 0 0.167 0 0.333 0 0.5-0.083 0.167-0.167 0.333-0.333 0.417s-0.25 0.25-0.333 0.417c-0.083 0.167-0.167 0.333-0.167 0.5s0 0.333 0.083 0.583c0.083 0.167 0.167 0.333 0.333 0.417 0.25 0.167 0.417 0.333 0.5 0.5 0.083 0.25 0.167 0.417 0.167 0.667s-0.083 0.417-0.167 0.667c-0.083 0.167-0.25 0.333-0.5 0.417s-0.417 0.25-0.5 0.333c-0.083 0.167-0.167 0.333-0.167 0.5s0 0.417 0.167 0.583c0.083 0.167 0.25 0.333 0.5 0.5s0.333 0.333 0.5 0.5c0.083 0.25 0.167 0.417 0.167 0.667s-0.083 0.417-0.167 0.583c-0.25 0.167-0.417 0.333-0.583 0.333zM25 14c-0.25 0.083-0.5 0.167-0.583 0.333-0.167 0.167-0.25 0.333-0.25 0.583 0 0.167 0.083 0.417 0.167 0.583s0.333 0.333 0.5 0.417c0.25 0.083 0.417 0.25 0.5 0.417s0.167 0.333 0.167 0.583c0 0.167 0 0.417-0.083 0.583s-0.25 0.333-0.417 0.417c-0.583 0.25-0.833 0.583-0.833 0.917s0.167 0.667 0.583 0.917c0.167 0.083 0.333 0.25 0.5 0.417s0.167 0.417 0.167 0.583 0 0.417-0.083 0.583-0.25 0.25-0.417 0.333c-0.25 0.083-0.5 0.167-0.583 0.333-0.167 0.167-0.25 0.333-0.25 0.583 0 0.167 0.083 0.417 0.167 0.583s0.333 0.333 0.583 0.5c0.167 0.083 0.333 0.25 0.333 0.417 0.083 0.167 0.083 0.333 0.083 0.5s-0.083 0.333-0.167 0.5-0.25 0.25-0.417 0.25h-17v-16.417h17.25c0.167 0 0.333 0.083 0.417 0.25s0.167 0.333 0.167 0.5c0 0.167 0 0.333-0.083 0.5s-0.25 0.333-0.417 0.333c-0.167 0.083-0.333 0.167-0.5 0.333-0.083 0.167-0.167 0.333-0.25 0.5 0 0.167 0 0.333 0.167 0.5s0.333 0.333 0.583 0.417c0.167 0.083 0.333 0.25 0.5 0.417s0.167 0.333 0.167 0.5 0 0.333-0.167 0.5-0.333 0.25-0.5 0.333zM17.167 16.167c-0.083 0-0.25 0-0.333 0s-0.167-0.083-0.083-0.167c0-0.083 0.083-0.167 0.333-0.417 0.167-0.25 0.417-0.5 0.583-0.833s0.417-0.583 0.667-0.833c0.167-0.25 0.333-0.417 0.333-0.5 0.083-0.167 0.083-0.417-0.167-0.583-0.083-0.083-0.167-0.083-0.25-0.167-0.167-0.083-0.25-0.167-0.333-0.167-0.167-0.083-0.333-0.083-0.333 0-0.083 0.083-0.167 0.167-0.25 0.333-0.083 0.083-0.167 0.25-0.333 0.5s-0.333 0.5-0.583 0.833c-0.167 0.25-0.333 0.5-0.5 0.75s-0.25 0.333-0.25 0.417c-0.083 0.083-0.083 0.083-0.25 0.083-0.083 0-0.167-0.083-0.25-0.167 0-0.083-0.083-0.167-0.333-0.333-0.167-0.167-0.333-0.417-0.583-0.667s-0.417-0.5-0.583-0.75c-0.167-0.25-0.333-0.417-0.333-0.5-0.167-0.333-0.417-0.5-0.583-0.333-0.167 0.083-0.25 0.167-0.417 0.25-0.083 0.083-0.25 0.167-0.333 0.25-0.25 0.167-0.25 0.333-0.083 0.583 0.333 0.417 0.667 0.833 1 1.167 0.25 0.333 0.5 0.583 0.667 0.917 0.25 0.25 0.333 0.417 0.417 0.5s0 0.167-0.167 0.167h-0.417c-0.083 0-0.25 0-0.5 0-0.167 0-0.417 0-0.583 0s-0.333 0.083-0.417 0.167-0.167 0.167-0.083 0.333c0 0.083 0 0.25 0 0.417v0.417c0 0.083 0 0.167 0.083 0.167s0.167 0 0.25 0h1.917c0.25 0 0.417 0.083 0.417 0.167v0.167c0 0.083 0 0.167-0.083 0.167h-2.333c-0.167 0-0.25 0-0.25 0.083s-0.083 0.167-0.083 0.333c0 0.083 0 0.25 0 0.333s0 0.167 0 0.25c0 0.25 0.167 0.417 0.417 0.417h2c0.083 0 0.167 0 0.167 0.083 0 0 0 0.083 0 0.25 0 0.083 0 0.333 0 0.583s0 0.5 0 0.583c0 0.25 0.167 0.333 0.417 0.333h1.083c0.167 0 0.25-0.083 0.25-0.167v-1.333c0-0.25 0.083-0.333 0.333-0.333h0.25c0.167 0 0.333 0 0.5 0s0.333 0 0.5 0h0.417c0.333 0 0.417-0.083 0.417-0.333v-0.75c0-0.167-0.083-0.333-0.333-0.333h-1.917c-0.25 0.083-0.333 0-0.333-0.167 0-0.083 0-0.167 0-0.25s0-0.167 0-0.25 0-0.167 0.083-0.167c0.083-0.083 0.167-0.083 0.25-0.083h2.083c0.25 0 0.333-0.083 0.333-0.25v-0.75c0-0.083 0-0.167-0.083-0.25s-0.167-0.167-0.25-0.167c0 0-1.167 0-1.167 0z"></path>
</svg>
<svg id="icon-icon-16" width="30" height="30" viewBox="0 0 30 30" x="180" y="180">
<path fill="#2ba1fc" d="M30 12.583c0 2.167-1.667 3.833-3.75 3.833s-3.75-1.75-3.75-3.833v0 0 0c0 2.167-1.667 3.833-3.75 3.833s-3.75-1.75-3.75-3.833v0 0 0 0c0 2.167-1.667 3.833-3.75 3.833s-3.75-1.667-3.75-3.833v0 0 0 0c0 2.167-1.667 3.833-3.75 3.833s-3.75-1.667-3.75-3.833v0 0 0l2.333-6.917h25.417l2.25 6.917zM25.167 3.333h-20.333c-0.75 0-1.333-0.5-1.333-1.167s0.583-1.167 1.417-1.167h20.333c0.75 0 1.417 0.5 1.417 1.167s-0.75 1.167-1.5 1.167zM5.75 17.333v7h18.5v-7c0.25 0.583 0.833 1.167 1.167 1.167 0.667 0.083 0.833-0.5 1.167-1.167v9.333c0 1.25-0.917 2.333-2.333 2.333h-18.5c-1.083 0-2.333-0.917-2.333-2.333v-9.333c0.167 0.583 0.333 1.167 1.167 1.167 0.75 0 1.083-0.75 1.167-1.167z"></path>
</svg>
<svg id="icon-icon-17" width="30" height="30" viewBox="0 0 30 30" x="0" y="240">
<path fill="#40cfb3" d="M28.083 28.5h-26.25c-1 0-1.833-0.833-1.833-1.833v-21.333c0-1 0.833-1.833 1.833-1.833h26.25c1 0 1.833 0.833 1.833 1.833v21.333c0.083 1-0.75 1.833-1.833 1.833z"></path>
<path fill="#fff" d="M3.583 5.417c0 0.598-0.485 1.083-1.083 1.083s-1.083-0.485-1.083-1.083c0-0.598 0.485-1.083 1.083-1.083s1.083 0.485 1.083 1.083z"></path>
<path fill="#fff" d="M6.667 5.417c0 0.598-0.485 1.083-1.083 1.083s-1.083-0.485-1.083-1.083c0-0.598 0.485-1.083 1.083-1.083s1.083 0.485 1.083 1.083z"></path>
<path fill="#fff" d="M9.75 5.417c0 0.598-0.485 1.083-1.083 1.083s-1.083-0.485-1.083-1.083c0-0.598 0.485-1.083 1.083-1.083s1.083 0.485 1.083 1.083z"></path>
<path fill="#fff" d="M1.25 8.583h27.417v5.75h-27.417v-5.75z"></path>
<path fill="#fff" d="M1.417 15.417h5.75v11.667h-5.75v-11.667z"></path>
<path fill="#fff" d="M22.917 15.5h5.75v11.667h-5.75v-11.667z"></path>
<path fill="#fff" d="M8.417 15.5h12.917v11.667h-12.917v-11.667z"></path>
</svg>
<svg id="icon-icon-18" width="30" height="30" viewBox="0 0 30 30" x="60" y="240">
<path fill="#f8b62a" d="M16.5 25.917c-0.833-0.417-2.167-0.417-3 0l-5.833 3.083c-1.667 0.833-2.75 0.083-2.417-1.75l1.083-6.417c0.167-0.917-0.25-2.167-0.917-2.833l-4.667-4.667c-1.333-1.333-0.917-2.583 0.917-2.833l6.5-0.917c0.917-0.167 2-0.917 2.417-1.75l2.917-5.833c0.833-1.667 2.167-1.667 3 0l2.917 5.833c0.417 0.833 1.5 1.583 2.417 1.75l6.5 0.917c1.833 0.25 2.25 1.583 0.917 2.833l-4.667 4.583c-0.667 0.667-1.083 1.917-0.917 2.833l1.083 6.417c0.333 1.833-0.75 2.583-2.417 1.75l-5.833-3z"></path>
</svg>
<svg id="icon-icon-19" width="30" height="30" viewBox="0 0 30 30" x="120" y="240">
<path fill="#33acfb" d="M30 15c0 8.284-6.716 15-15 15s-15-6.716-15-15c0-8.284 6.716-15 15-15s15 6.716 15 15z"></path>
<path fill="#fff" d="M27.773 15c0 7.055-5.719 12.773-12.773 12.773s-12.773-5.719-12.773-12.773c0-7.055 5.719-12.773 12.773-12.773s12.773 5.719 12.773 12.773z"></path>
<path fill="#33acfb" d="M21.094 10.148h-8.742c-0.562 0-1.031-0.469-1.031-1.031v-0.164c0-0.562 0.469-1.031 1.031-1.031h8.742c0.563 0 0.797-0.141 1.031 1.031v0.164c0 0.563-0.352 0.867-1.031 1.031z"></path>
<path fill="#33acfb" d="M10.195 24.234v0c-0.586-0.070-1.125-0.164-0.891-1.266l1.922-14.016c0.094-0.609 0.633-1.055 1.219-0.984v0c0.586 0.070 0.984 0.656 0.891 1.266l-1.922 14.016c-0.187 1.031-0.633 1.055-1.219 0.984z"></path>
<path fill="#33acfb" d="M18.82 16.992h-7.617c-0.492 0-0.891-0.469-0.891-1.031v-0.164c0-0.563 0.398-1.031 0.891-1.031h7.594c0.492 0 0.703-0.141 0.891 1.031v0.164c0.023 0.586-0.305 0.891-0.867 1.031z"></path>
</svg>
<svg id="icon-icon-20" width="30" height="30" viewBox="0 0 30 30" x="180" y="240">
<path fill="#2ba1fc" d="M27.583 12.583v0-2.083c0-5.75-4.917-10.5-11-10.5h-3.167c-5.917 0-10.833 4.75-10.833 10.5v2.083c-0.083 0-0.083 0-0.167 0-1.333 0-2.417 1.083-2.417 2.5v5.083c0 1.333 1.083 2.5 2.417 2.5 0.083 0 0.25 0 0.333 0 1.083 3.25 5.083 5.75 10 6.25 0.5 0.667 0.75 1.167 2.333 1.167 2.083 0 3.583-0.833 3.583-1.833s-1.583-1.833-3.583-1.833c-1.583 0-1.833 0.5-2.333 1.167-4.417-0.417-8-2.667-8.833-5.5 0.833 0 1.5-1.167 1.5-1.917v-9.75c0-4.833 2.833-6.833 8-6.833h3.167c5.167 0 7.833 1.917 7.833 6.833v9.667c0 1.333 1.417 2.333 2.75 2.333s2.75-0.917 2.75-2.333v-5.083c0.083-1.333-1-2.417-2.333-2.417v0z"></path>
</svg>
<svg id="icon-icon-21" width="30" height="30" viewBox="0 0 30 30" x="0" y="300">
<path fill="#f8b62a" d="M24.833 11.417c0 0.25-0.083 0.583-0.083 0.833-0.75 5.083-4.75 8.667-9.5 8.667h-1.583l-0.333 0.333c1.083 2 3.083 3.25 5.333 3.25h1.583l3.083 3.167c0.167 0.167 0.5 0.333 0.75 0.333 0.167 0 0.25 0 0.417-0.083 0.417-0.167 0.667-0.5 0.667-0.917v-2.583c2.833-0.583 5-3.25 5-6.5-0.167-3.25-2.417-6-5.333-6.5z"></path>
<path fill="#f8b62a" d="M23.25 12.083c0.083-0.5 0.083-0.917 0.083-1.333 0-4.917-3.667-8.833-8.167-8.833h-7.083c-4.417 0-8.083 3.917-8.083 8.833 0 4.333 2.917 7.917 6.75 8.667v3.75c0 0.5 0.333 0.917 0.75 1.083 0.167 0.083 0.333 0.083 0.417 0.083 0.333 0 0.667-0.167 0.833-0.333l4.25-4.417h2.167c4.083-0.083 7.417-3.167 8.083-7.5zM5.917 8h11.5c0.333 0 0.583 0.25 0.583 0.583s-0.25 0.583-0.583 0.583h-11.5c-0.333 0-0.583-0.25-0.583-0.583s0.25-0.583 0.583-0.583zM12.75 13.667h-6.833c-0.333 0-0.583-0.25-0.583-0.583s0.25-0.583 0.583-0.583h6.917c0.333 0 0.583 0.25 0.583 0.583-0.083 0.333-0.333 0.583-0.667 0.583z"></path>
</svg>
<svg id="icon-icon-22" width="30" height="30" viewBox="0 0 30 30" x="60" y="300">
<path fill="#2ba1fc" d="M15 0c-6 0-10.833 5-10.833 11.167 0 0 0 0.583 0.167 1.5 0.75 4.333 4.083 9.667 6.833 13.25 0 0.083 0.083 0.083 0.083 0.083 1.833 2.417 3.75 4 3.75 4s1.917-1.583 3.833-4l0.083-0.083c2.667-3.667 6.083-9 6.833-13.333 0.083-0.917 0.083-1.5 0.083-1.5 0-6.167-4.833-11.083-10.833-11.083zM15 18.667c-4.083 0-7.417-3.333-7.417-7.417s3.333-7.417 7.417-7.417 7.417 3.333 7.417 7.417-3.333 7.417-7.417 7.417z"></path>
<path fill="#2ba1fc" d="M18.917 11.25c0 2.163-1.754 3.917-3.917 3.917s-3.917-1.754-3.917-3.917c0-2.163 1.754-3.917 3.917-3.917s3.917 1.754 3.917 3.917z"></path>
</svg>
<svg id="icon-icon-23" width="30" height="30" viewBox="0 0 30 30" x="120" y="300">
<path fill="#2ba1fc" d="M20.167 5.667h-17.667c-1.333 0-2.5 1.083-2.5 2.5v19.333c0 1.333 1.083 2.5 2.5 2.5h17.75c1.333 0 2.5-1.083 2.5-2.5v-19.333c-0.083-1.417-1.167-2.5-2.583-2.5zM19.833 23.083h-17v-14.667h17.083v14.667h-0.083z"></path>
<path fill="#2ba1fc" d="M4.167 11.5h10.667v1.333h-10.667v-1.333z"></path>
<path fill="#2ba1fc" d="M4.167 15.083h10.667v1.333h-10.667v-1.333z"></path>
<path fill="#2ba1fc" d="M4.167 18.583h14.25v1.333h-14.25v-1.333z"></path>
<path fill="#2ba1fc" d="M27.417 0h-17.667c-1.333 0-2.5 1.083-2.5 2.5v2.083h2.75v-1.833h17.083v14.75h-3.167v6.917h3.5c1.333 0 2.5-1.083 2.5-2.5v-19.417c0-1.417-1.083-2.5-2.5-2.5z"></path>
</svg>
<svg id="icon-icon-24" width="30" height="30" viewBox="0 0 30 30" x="180" y="300">
<path fill="#bcbbbb" d="M11.25 3.75v7.5h-7.5v-7.5h7.5zM11.25 1.875h-7.5c-1.035 0-1.875 0.84-1.875 1.875v7.5c0 1.035 0.84 1.875 1.875 1.875h7.5c1.035 0 1.875-0.84 1.875-1.875v-7.5c0-1.035-0.84-1.875-1.875-1.875zM11.25 18.75v7.5h-7.5v-7.5h7.5zM11.25 16.875h-7.5c-1.035 0-1.875 0.84-1.875 1.875v7.5c0 1.035 0.84 1.875 1.875 1.875h7.5c1.035 0 1.875-0.84 1.875-1.875v-7.5c0-1.035-0.84-1.875-1.875-1.875z"></path>
<path fill="#bcbbbb" d="M16.875 22.5c0 3.105 2.52 5.625 5.625 5.625s5.625-2.52 5.625-5.625-2.52-5.625-5.625-5.625-5.625 2.52-5.625 5.625z"></path>
<path fill="#bcbbbb" d="M22.5 18.75c2.070 0 3.75 1.68 3.75 3.75s-1.68 3.75-3.75 3.75-3.75-1.68-3.75-3.75 1.68-3.75 3.75-3.75zM22.5 16.875c-3.105 0-5.625 2.52-5.625 5.625s2.52 5.625 5.625 5.625 5.625-2.52 5.625-5.625-2.52-5.625-5.625-5.625zM26.25 3.75v7.5h-7.5v-7.5h7.5zM26.25 1.875h-7.5c-1.035 0-1.875 0.84-1.875 1.875v7.5c0 1.035 0.84 1.875 1.875 1.875h7.5c1.035 0 1.875-0.84 1.875-1.875v-7.5c0-1.035-0.84-1.875-1.875-1.875z"></path>
</svg>
<svg id="icon-icon-25" width="30" height="30" viewBox="0 0 30 30" x="0" y="360">
<path fill="#2ba1fc" d="M20.583 11.667c0.417 0.5 0.833 1 1.333 1.5 0.417 0.417 0.833 1 1.333 1.5 0.5 0.583 1 1.167 1.5 1.667 0.667 0.75 1.167 1.417 1.667 2 0.417 0.583 0.75 1.167 1 1.667s0.417 1 0.5 1.333c0.083 0.417 0.167 0.833 0.167 1.25v1.917c0 0.583-0.083 1.167-0.333 1.583-0.25 0.5-0.5 0.917-0.833 1.25s-0.75 0.583-1.167 0.833c-0.417 0.167-0.917 0.25-1.417 0.25h-18.5c-0.583 0-1.083-0.083-1.5-0.25-0.5-0.167-0.917-0.417-1.333-0.75s-0.667-0.75-0.833-1.167-0.333-1-0.333-1.583v-2.333c0-0.5 0.083-0.917 0.167-1.333s0.25-0.917 0.5-1.333c0.25-0.5 0.583-1 1-1.5s0.917-1.167 1.583-1.833c0.5-0.583 1.083-1.167 1.583-1.667 0.583-0.583 1-1.083 1.5-1.5 0.5-0.5 1-1.083 1.5-1.583l10.917 0.083zM15 23c0.5 0 1-0.083 1.5-0.333 0.417-0.167 0.833-0.5 1.167-0.833s0.583-0.75 0.833-1.167c0.167-0.417 0.333-1 0.333-1.5s-0.083-1-0.333-1.5c-0.167-0.417-0.5-0.833-0.833-1.167s-0.75-0.583-1.167-0.833c-0.417-0.167-0.917-0.333-1.5-0.333-0.5 0-1 0.083-1.5 0.333s-0.833 0.5-1.167 0.833c-0.333 0.333-0.583 0.75-0.833 1.167-0.167 0.417-0.333 0.917-0.333 1.5s0.083 1 0.333 1.5c0.25 0.5 0.5 0.833 0.833 1.167s0.75 0.583 1.167 0.833c0.417 0.167 0.917 0.333 1.5 0.333zM30 8.083v1.917c0 0.5-0.167 1-0.583 1.333s-0.833 0.5-1.333 0.5h-3.75c-0.5 0-1-0.167-1.333-0.5s-0.583-0.833-0.583-1.333v-1.917h-14.917v1.917c0 0.5-0.167 1-0.583 1.333-0.333 0.333-0.833 0.5-1.333 0.5h-3.75c-0.5 0-1-0.167-1.333-0.5-0.417-0.333-0.583-0.833-0.583-1.333v-2c0.083-0.25 0.167-0.5 0.25-0.667s0.25-0.333 0.417-0.5 0.417-0.167 0.667-0.333c0.167-0.083 0.417-0.25 0.667-0.333s0.75-0.417 1.5-0.833c0.75-0.417 1.667-0.833 2.917-1.25s2.5-0.833 4-1.167 3-0.5 4.667-0.5c1.917 0 3.667 0.167 5.167 0.5s2.833 0.75 3.917 1.167 2 0.833 2.667 1.25c0.667 0.417 1.167 0.667 1.333 0.833 0.25 0.167 0.5 0.25 0.667 0.417 0.25 0.083 0.417 0.25 0.583 0.417s0.333 0.25 0.417 0.5c0.167 0.083 0.25 0.333 0.25 0.583v0 0z"></path>
</svg>
<svg id="icon-icon-26" width="30" height="30" viewBox="0 0 30 30" x="60" y="360">
<path fill="#2ba1fc" d="M21.083 5.667l-11.5-5.667-1.25 0.667-8.333 5v24.333l9.833-5.583 9.833 5.083 1.167 0.5 0.75-0.5 8.417-5.167v-24.333l-8.917 5.667zM2 6.667l6.583-3.833v20.083l-6.583 3.75v-20zM10.75 22.667l-0.333-0.167v-20l9.333 4.583v20.167l-9-4.583zM28.167 23.333l-6.583 4v-19.833l0.583-0.333 6-3.833v20z"></path>
</svg>
<svg id="icon-icon-27" width="30" height="30" viewBox="0 0 30 30" x="120" y="360">
<path fill="#40cfb3" d="M26.75 3.75h-2v1.333c0 1.583-1.333 2.917-2.917 2.917s-2.833-1.333-2.833-2.917v-1.333h-1.083v1.333c0 1.583-1.333 2.917-2.917 2.917s-2.917-1.333-2.917-2.917v-1.333h-1.083v1.333c0 1.583-1.333 2.917-2.917 2.917s-2.833-1.333-2.833-2.917v-1.333h-2c-0.833 0-1.583 0.667-1.583 1.583v23.083c0 0.833 0.667 1.583 1.583 1.583h23.417c0.833 0 1.583-0.667 1.583-1.583v-23.083c0.083-0.917-0.667-1.583-1.5-1.583z"></path>
<path fill="#40cfb3" d="M8.167 6.833h-0.083c-0.75 0-1.417-0.667-1.417-1.417v-4.083c0-0.75 0.667-1.333 1.417-1.333h0.083c0.75 0 1.333 0.583 1.333 1.333v4.083c0 0.75-0.583 1.417-1.333 1.417z"></path>
<path fill="#40cfb3" d="M15.083 6.833h-0.083c-0.75 0-1.333-0.583-1.333-1.333v-4.167c-0.083-0.75 0.5-1.333 1.25-1.333h0.083c0.75 0 1.333 0.583 1.333 1.333v4.083c0.167 0.75-0.5 1.417-1.25 1.417z"></path>
<path fill="#40cfb3" d="M22 6.833h-0.083c-0.75 0-1.333-0.583-1.333-1.333v-4.167c0-0.75 0.583-1.333 1.333-1.333h0.083c0.75 0 1.333 0.583 1.333 1.333v4.083c0 0.75-0.583 1.417-1.333 1.417z"></path>
<path fill="#fff" d="M22.667 16.333l-3.083-4.083-3 4.083h2.083v10.167h2v-10.167z"></path>
<path fill="#fff" d="M7.333 22.417l3.083 4.083 3-4.083h-2.083v-10.167h-1.917v10.167z"></path>
</svg>
<svg id="icon-icon-28" width="30" height="30" viewBox="0 0 30 30" x="180" y="360">
<path fill="#b98aff" d="M24.083 2.417h-18.167l-5.917 8 15 18.833 15-18.833-5.917-8zM15 20.417l-7.333-10.833h3.333l4 6 4-6h3.333l-7.333 10.833z"></path>
</svg>
<svg id="icon-icon-29" width="30" height="30" viewBox="0 0 30 30" x="0" y="420">
<path fill="#2ba1fc" d="M5.34 20.595c0 0.45 0.36 0.81 0.81 0.81s0.81-0.36 0.81-0.81v0c0-0.45-0.36-0.81-0.81-0.81-0.45 0.015-0.81 0.375-0.81 0.81v0z"></path>
<path fill="#2ba1fc" d="M8.145 20.595c0 0.45 0.36 0.81 0.81 0.81s0.81-0.36 0.81-0.81v0c0-0.45-0.36-0.81-0.81-0.81-0.45 0.015-0.81 0.375-0.81 0.81v0z"></path>
<path fill="#2ba1fc" d="M10.965 20.595c0 0.45 0.36 0.81 0.81 0.81s0.81-0.36 0.81-0.81v0c0-0.45-0.36-0.81-0.81-0.81-0.45 0.015-0.81 0.375-0.81 0.81v0z"></path>
<path fill="none" stroke="#2ba1fc" stroke-width="1.5" stroke-miterlimit="10" stroke-linecap="butt" stroke-linejoin="miter" d="M22.95 24.045h-15.975c-2.655 0-4.83-2.175-4.83-4.83v0c0-2.655 2.175-4.83 4.83-4.83h15.975c2.655 0 4.83 2.175 4.83 4.83v0c0 2.67-2.175 4.83-4.83 4.83z"></path>
<path fill="#2ba1fc" d="M22.5 15v0c-0.435 0-0.78-0.36-0.78-0.78v-9.96c0-0.435 0.36-0.78 0.78-0.78v0c0.435 0 0.78 0.36 0.78 0.78v9.945c0 0.435-0.345 0.795-0.78 0.795z"></path>
</svg>
<svg id="icon-icon-30" width="30" height="30" viewBox="0 0 30 30" x="60" y="420">
<path fill="#2ba1fc" d="M24.727 30h-19.453c-2.859 0-5.203-2.344-5.203-5.203v-19.594c-0.023-2.859 2.344-5.203 5.203-5.203h19.477c2.859 0 5.203 2.344 5.203 5.203v19.594c0 2.859-2.367 5.203-5.227 5.203z"></path>
<path fill="#fff" d="M4.336 5.414h21.328v1.875h-21.328v-1.875z"></path>
<path fill="#fff" d="M4.336 11.367h10.664v1.875h-10.664v-1.875z"></path>
<path fill="#fff" d="M4.336 16.992h10.664v1.875h-10.664v-1.875z"></path>
<path fill="#fff" d="M4.336 22.477h10.664v1.875h-10.664v-1.875z"></path>
<path fill="#fff" d="M20.484 11.367h1.57v1.969h-1.57v-1.969z"></path>
<path fill="#fff" d="M20.484 22.148h1.57v2.203h-1.57v-2.203z"></path>
<path fill="#fff" d="M17.695 14.555c0 0 0 0 0 0.023-0.094 0.281-0.82 2.789 2.227 3.844 0 0 3.164 0.891 2.672 2.367 0 0 0.047 1.195-2.484 1.031 0 0-0.914 0.117-2.555-0.984v1.922c0 0 1.969 1.125 4.852 0.328 0 0 1.875-0.633 2.086-2.227 0 0 0.609-2.344-2.016-3.258 0 0-2.086-0.914-2.297-1.078 0 0-1.594-1.008-0.234-2.109 0.094-0.070 0.211-0.164 0.352-0.258 0 0 0.023 0 0.023-0.023 0 0 0.023 0 0.023 0 0.164-0.070 1.781-0.586 3.68 0.562v-1.758c-0.023 0-4.547-1.758-6.328 1.617 0-0.023 0 0 0 0z"></path>
</svg>
</svg>
