<svg id="图层_1" xmlns="http://www.w3.org/2000/svg" viewBox="0 0 300 300"><style>.st0{fill:#e0e7ff}.st3{fill:#fff}</style><path class="st0" d="M195.3 70v154h-90.7V70h90.7m1-13h-92.7c-6.6 0-12 5.4-12 12v156c0 6.6 5.4 12 12 12h92.7c6.6 0 12-5.4 12-12V69c0-6.6-5.4-12-12-12z"/><path class="st0" d="M203 210.3H101v18h102v-18z"/><circle cx="150.2" cy="223.8" r="4.5" fill="#5c93f9"/><path fill="none" stroke="#e0e7ff" stroke-width="13" stroke-miterlimit="10" d="M99 66.9h102"/><path class="st3" d="M140.2 177c2.6 0 4.7-2.1 4.7-4.7v-60.7c0-2.6-2.1-4.7-4.7-4.7s-4.7 2.1-4.7 4.7v60.7c0 2.6 2.1 4.7 4.7 4.7z"/><path class="st3" d="M124.8 134c2.1 1.5 5 .9 6.5-1.2l12.1-17.6c1.5-2.1.9-5-1.2-6.5s-5-.9-6.5 1.2l-12.1 17.6c-1.5 2.1-1 5 1.2 6.5z"/><g><path class="st3" d="M161.1 107c-2.6 0-4.7 2.1-4.7 4.7v60.7c0 2.6 2.1 4.7 4.7 4.7s4.7-2.1 4.7-4.7v-60.7c0-2.6-2.1-4.7-4.7-4.7z"/><path class="st3" d="M176.6 150c-2.1-1.5-5-.9-6.5 1.2L158 168.8c-1.5 2.1-.9 5 1.2 6.5s5 .9 6.5-1.2l12.1-17.6c1.4-2.2.9-5.1-1.2-6.5z"/></g></svg>