<svg xmlns="http://www.w3.org/2000/svg" xmlns:xlink="http://www.w3.org/1999/xlink" width="210" height="330"><svg width="30" height="30"><path fill="#555" d="M18.402 23.708L9.694 15l8.708-8.697a.726.726 0 0 0 0-1.009.706.706 0 0 0-1.009 0L8.277 14.41a.717.717 0 0 0-.204.59.706.706 0 0 0 .204.612l9.116 9.116a.726.726 0 0 0 1.009 0 .72.72 0 0 0 0-1.021z"/></svg><svg width="30" height="30" x="60"><path fill="#fff" d="M18.482 23.914L9.568 15l8.914-8.902a.744.744 0 0 0 0-1.033.722.722 0 0 0-1.033 0l-9.332 9.332a.735.735 0 0 0-.209.603.723.723 0 0 0 .209.627l9.332 9.332a.744.744 0 0 0 1.033 0c.29-.302.29-.766 0-1.045z"/></svg><svg width="30" height="30" x="120"><path fill="none" stroke="#000" stroke-miterlimit="10" d="M26.47 15.07c0 6.39-5.18 11.57-11.57 11.57S3.33 21.46 3.33 15.07C3.33 8.68 8.51 3.5 14.9 3.5s11.57 5.18 11.57 11.57z"/><path fill="none" stroke="#000" stroke-miterlimit="10" d="M18.06 12.14a3.41 3.41 0 1 1-6.82 0 3.41 3.41 0 0 1 6.82 0z"/><path fill="none" stroke="#000" stroke-miterlimit="10" stroke-linecap="round" d="M9.3 21.09c0-3 2.51-5.44 5.6-5.44s5.6 2.44 5.6 5.44"/></svg><svg width="30" height="30" x="180"><path fill="#555" d="M17.465 14.694a2.477 2.477 0 1 1-4.955.001 2.477 2.477 0 0 1 4.955-.001zM9.772 14.694a2.477 2.477 0 1 1-4.955.001 2.477 2.477 0 0 1 4.955-.001zM25.164 14.694a2.477 2.477 0 1 1-4.955.001 2.477 2.477 0 0 1 4.955-.001z"/></svg><svg width="30" height="30" y="60"><path fill="#fff" d="M17.698 14.666a2.713 2.713 0 1 1-5.426 0 2.713 2.713 0 0 1 5.426 0zM9.278 14.666a2.713 2.713 0 1 1-5.426 0 2.713 2.713 0 0 1 5.426 0zM26.125 14.666a2.713 2.713 0 1 1-5.426 0 2.713 2.713 0 0 1 5.426 0z"/></svg><svg width="30" height="30" x="60" y="60"><path fill="#555" d="M15 10.56c-2.34 0-4.23 1.92-4.23 4.29s1.905 4.29 4.23 4.29c.24 0 .48-.03.75-.075.33-.06.54-.375.495-.72a.61.61 0 0 0-.705-.495c-.21.045-.375.06-.54.06-1.665 0-3.015-1.38-3.015-3.06 0-1.695 1.35-3.06 3.015-3.06s3.015 1.38 3.015 3.06c0 .165-.015.33-.06.54-.06.33.165.66.48.72a.61.61 0 0 0 .705-.495c.045-.285.075-.525.075-.765.015-2.37-1.875-4.29-4.215-4.29zm12.48 1.875a.592.592 0 0 0-.465-.48c-1.335-.315-2.43-1.14-3.105-2.325s-.825-2.565-.435-3.885a.62.62 0 0 0-.18-.645 12.71 12.71 0 0 0-4.125-2.415.613.613 0 0 0-.645.165c-.93 1.005-2.19 1.56-3.54 1.56s-2.61-.555-3.525-1.56a.613.613 0 0 0-.645-.165A12.71 12.71 0 0 0 6.69 5.1a.612.612 0 0 0-.18.645c.39 1.32.24 2.7-.435 3.885s-1.77 2.01-3.105 2.325a.61.61 0 0 0-.465.48c-.15.81-.225 1.635-.225 2.415s.075 1.605.225 2.415c.045.24.225.435.465.48 1.335.315 2.43 1.14 3.105 2.325s.825 2.565.435 3.885a.62.62 0 0 0 .18.645 12.71 12.71 0 0 0 4.125 2.415c.06.03.135.03.195.03a.65.65 0 0 0 .45-.195c.93-1.005 2.19-1.56 3.54-1.56s2.61.555 3.525 1.56c.165.18.42.24.645.165 1.53-.54 2.91-1.35 4.125-2.415a.612.612 0 0 0 .18-.645c-.39-1.32-.24-2.7.435-3.885s1.785-2.01 3.105-2.325a.61.61 0 0 0 .465-.48c.15-.81.225-1.635.225-2.415.015-.78-.06-1.59-.225-2.415zm-1.125 4.23a6.104 6.104 0 0 0-3.495 2.79 6.23 6.23 0 0 0-.645 4.455c-.93.765-1.98 1.38-3.09 1.815A5.91 5.91 0 0 0 15 24.06c-1.53 0-3.015.6-4.125 1.665a11.24 11.24 0 0 1-3.09-1.815 6.08 6.08 0 0 0-.645-4.455 6.046 6.046 0 0 0-3.495-2.79c-.09-.615-.15-1.215-.15-1.815 0-.585.045-1.2.15-1.815a6.151 6.151 0 0 0 3.495-2.79 6.23 6.23 0 0 0 .645-4.455 11.24 11.24 0 0 1 3.09-1.815A5.976 5.976 0 0 0 15 5.64c1.56 0 3-.585 4.125-1.665a11.24 11.24 0 0 1 3.09 1.815 6.218 6.218 0 0 0 .645 4.455 6.046 6.046 0 0 0 3.495 2.79c.09.615.15 1.215.15 1.815 0 .585-.045 1.2-.15 1.815z"/></svg><svg width="30" height="30" x="120" y="60"><path d="M14.58 3.62L3.53 14.67c-.19.19-.19.51 0 .71.19.19.51.19.71 0L15.29 4.32c.19-.19.19-.51 0-.71a.504.504 0 0 0-.71.01z"/><path d="M15.33 3.62l11.05 11.05c.19.19.19.51 0 .71-.19.19-.51.19-.71 0L14.63 4.32a.513.513 0 0 1 0-.71c.19-.19.51-.19.7.01zM6.08 25.6c-.28 0-.5-.22-.5-.5V13.07c0-.28.22-.5.5-.5.27 0 .5.22.5.5V25.1c0 .27-.23.5-.5.5z"/><path d="M23.68 25.6c-.28 0-.5-.22-.5-.5V13.07c0-.28.22-.5.5-.5s.5.22.5.5V25.1c0 .27-.23.5-.5.5zM11.75 25.61H6.03c-.25 0-.45-.2-.45-.45v-.1c0-.25.2-.45.45-.45h5.72c.25 0 .45.2.45.45v.1c0 .25-.21.45-.45.45z"/><path d="M23.73 25.61h-5.72c-.25 0-.45-.2-.45-.45v-.1c0-.25.2-.45.45-.45h5.72c.25 0 .45.2.45.45v.1c0 .25-.2.45-.45.45zM11.7 25.61c-.28 0-.5-.22-.5-.5V16.9c0-.28.22-.5.5-.5s.5.22.5.5v8.21c0 .27-.23.5-.5.5z"/><path d="M17.96 25.61c-.28 0-.5-.22-.5-.5V16.9c0-.28.22-.5.5-.5s.5.22.5.5v8.21c0 .27-.22.5-.5.5z"/><path d="M18.01 17.4h-6.33c-.25 0-.45-.2-.45-.45v-.1c0-.25.2-.45.45-.45h6.33c.25 0 .45.2.45.45v.1c0 .25-.2.45-.45.45z"/></svg><svg width="30" height="30" x="180" y="60"><path fill="#fff" opacity=".75" d="M14.33 18.792a.67.67 0 1 0 1.34 0 .67.67 0 0 0-1.34 0z"/><path fill="#fff" opacity=".75" d="M15 21.234c-3.436 0-6.234-2.799-6.234-6.234S11.565 8.766 15 8.766s6.234 2.799 6.234 6.234-2.799 6.234-6.234 6.234zm0-11.573A5.342 5.342 0 0 0 9.661 15c0 2.942 2.397 5.339 5.339 5.339s5.339-2.397 5.339-5.339A5.345 5.345 0 0 0 15 9.661z"/><path fill="#fff" opacity=".75" d="M15 17.249a.443.443 0 0 1-.443-.443v-.753c0-.73.559-1.284 1.048-1.778.36-.36.734-.734.734-1.03 0-.744-.6-1.344-1.334-1.344a1.31 1.31 0 0 0-1.334 1.316.443.443 0 1 1-.886 0c0-1.214.997-2.207 2.226-2.207s2.226 1.002 2.226 2.235c0 .665-.503 1.173-.993 1.658-.388.388-.785.785-.785 1.145v.753a.466.466 0 0 1-.457.448z"/></svg><svg width="30" height="30" y="120"><path fill="#fff" d="M8.543 14.167c0 .715.576 1.291 1.291 1.291s1.291-.576 1.291-1.291-.576-1.291-1.291-1.291-1.291.576-1.291 1.291zm5.111 0c0 .715.576 1.291 1.291 1.291s1.291-.576 1.291-1.291-.576-1.291-1.291-1.291a1.288 1.288 0 0 0-1.291 1.291zm5.116 0c0 .715.576 1.291 1.291 1.291s1.291-.576 1.291-1.291-.576-1.291-1.291-1.291a1.284 1.284 0 0 0-1.291 1.291z"/><path fill="#fff" d="M24.581 10.536a9.34 9.34 0 0 0-2.25-2.937C20.367 5.877 17.763 4.933 15 4.933s-5.367.951-7.331 2.673a9.165 9.165 0 0 0-2.25 2.929 8.302 8.302 0 0 0-.833 3.631c0 1.472.403 2.943 1.159 4.242a9.686 9.686 0 0 0 2.728 2.957v3.055a.733.733 0 0 0 .736.736.772.772 0 0 0 .368-.097l3.235-1.867a12.01 12.01 0 0 0 2.179.201c2.763 0 5.367-.951 7.331-2.673a9.16 9.16 0 0 0 2.25-2.937 8.272 8.272 0 0 0 .833-3.624 8.193 8.193 0 0 0-.826-3.624zM15 21.922c-.722 0-1.451-.077-2.152-.229a.75.75 0 0 0-.521.083l-2.374 1.368v-2.166a.741.741 0 0 0-.333-.618c-2.263-1.486-3.561-3.742-3.561-6.2 0-4.277 4.013-7.755 8.942-7.755s8.942 3.478 8.942 7.755c0 4.283-4.013 7.761-8.942 7.761z"/></svg><svg width="30" height="30" x="60" y="120"><path fill="none" stroke="#333" stroke-miterlimit="10" stroke-linecap="round" d="M7.54 9c-.59-.29-.91-1.3-.5-2.27l.07-.17c0-.01.01-.02.01-.03.44-1.01 1.8-1.42 2.85-.87l3.13 1.66"/><path fill="none" stroke="#333" stroke-miterlimit="10" d="M24.82 14.34H5.46c-.58 0-1.06-.48-1.06-1.06V10.1c0-.58.48-1.06 1.06-1.06h19.36c.58 0 1.06.48 1.06 1.06v3.18c-.01.59-.48 1.06-1.06 1.06zM22.49 25.86H8.06c-.66 0-1.2-.54-1.2-1.2V14.47c0-.07.06-.13.13-.13H23.6c.05 0 .1.04.1.1v10.22c-.01.66-.55 1.2-1.21 1.2z"/><path d="M13.1 25.86c-.28 0-.5-.22-.5-.5V14.84c0-.28.22-.5.5-.5s.5.22.5.5v10.52c0 .28-.22.5-.5.5zM17.33 25.86c-.28 0-.5-.22-.5-.5V14.84c0-.28.22-.5.5-.5s.5.22.5.5v10.52c0 .28-.22.5-.5.5z"/><path fill="none" stroke="#333" stroke-miterlimit="10" d="M13.1 7.05h4.23v1.91H13.1V7.05z"/><path fill="none" stroke="#333" stroke-miterlimit="10" stroke-linecap="round" d="M23.04 9c.59-.29.91-1.3.5-2.27l-.07-.17c0-.01-.01-.02-.01-.03-.44-1.01-1.8-1.42-2.85-.87l-3.13 1.65"/></svg><svg width="30" height="30" x="120" y="120"><path fill="#4699ff" d="M22.161 11.839l-8.183 7.748a1.096 1.096 0 0 1-1.509 0h.001l-4.627-4.38a.955.955 0 0 1-.313-.71v-.002a1.042 1.042 0 0 1 1.041-1.011h.028-.002.003c.291 0 .555.114.751.3l3.87 3.661 7.43-7.03c.196-.186.46-.3.751-.3h.032c.565 0 1.024.449 1.041 1.011v.002a.989.989 0 0 1-.312.712h-.001z"/></svg><svg width="30" height="30" x="180" y="120"><path fill="#fff" d="M14.67 7.15c2.27 0 4.12 1.85 4.12 4.12s-1.84 4.13-4.12 4.13-4.12-1.85-4.12-4.13 1.85-4.12 4.12-4.12zm0-.8c-2.72 0-4.92 2.2-4.92 4.92s2.2 4.93 4.92 4.93 4.92-2.2 4.92-4.93-2.2-4.92-4.92-4.92z"/><path fill="none" stroke="#fff" stroke-width=".8" stroke-miterlimit="10" stroke-linecap="round" d="M6.52 22.6c0-3.7 3.75-6.71 8.37-6.71 1.7 0 3.29.41 4.61 1.11"/><path fill="#fff" d="M23.37 20H14c-.22 0-.4-.18-.4-.4 0-.22.18-.4.4-.4h9.37c.22 0 .4.18.4.4 0 .22-.18.4-.4.4z"/><path fill="#fff" d="M23.69 19.87c-.17.14-.42.12-.56-.04l-.83-.97a.405.405 0 0 1 .04-.56c.17-.14.42-.12.56.04l.83.97c.15.16.13.41-.04.56z"/><path fill="#fff" d="M22.43 19.96c-.12 0-.22-.1-.22-.22v-1.08c0-.12.1-.22.22-.22s.22.1.22.22v1.08c.01.12-.1.22-.22.22z"/><path fill="#fff" d="M22.21 18.59h.01v.06h-.01v-.06zM14.03 21.13h9.37c.22 0 .4.18.4.4 0 .22-.18.4-.4.4h-9.37c-.22 0-.4-.18-.4-.4 0-.22.18-.4.4-.4z"/><path fill="#fff" d="M13.71 21.27c.17-.14.42-.12.56.04l.83.97c.14.17.12.42-.04.56-.17.14-.42.12-.56-.04l-.83-.97a.387.387 0 0 1 .04-.56z"/><path fill="#fff" d="M14.97 21.17c.12 0 .22.1.22.22v1.08c0 .12-.1.22-.22.22s-.22-.1-.22-.22V21.4c0-.13.1-.23.22-.23z"/><path fill="#fff" d="M15.19 22.47h.01v.06h-.01v-.06z"/></svg><svg width="30" height="30" y="180"><path d="M14.67 7.15c2.27 0 4.12 1.85 4.12 4.12s-1.84 4.13-4.12 4.13-4.12-1.85-4.12-4.13 1.85-4.12 4.12-4.12zm0-.8c-2.72 0-4.92 2.2-4.92 4.92s2.2 4.93 4.92 4.93 4.92-2.2 4.92-4.93-2.2-4.92-4.92-4.92z"/><path fill="none" stroke="#333" stroke-width=".8" stroke-miterlimit="10" stroke-linecap="round" d="M6.52 22.6c0-3.7 3.75-6.71 8.37-6.71 1.7 0 3.29.41 4.61 1.11"/><path d="M23.37 20H14c-.22 0-.4-.18-.4-.4 0-.22.18-.4.4-.4h9.37c.22 0 .4.18.4.4 0 .22-.18.4-.4.4z"/><path d="M23.69 19.87c-.17.14-.42.12-.56-.04l-.83-.97a.405.405 0 0 1 .04-.56c.17-.14.42-.12.56.04l.83.97c.15.16.13.41-.04.56z"/><path d="M22.43 19.96c-.12 0-.22-.1-.22-.22v-1.08c0-.12.1-.22.22-.22s.22.1.22.22v1.08c.01.12-.1.22-.22.22z"/><path d="M22.21 18.59h.01v.06h-.01v-.06zM14.03 21.13h9.37c.22 0 .4.18.4.4 0 .22-.18.4-.4.4h-9.37c-.22 0-.4-.18-.4-.4 0-.22.18-.4.4-.4z"/><path d="M13.71 21.27c.17-.14.42-.12.56.04l.83.97c.14.17.12.42-.04.56-.17.14-.42.12-.56-.04l-.83-.97a.387.387 0 0 1 .04-.56z"/><path d="M14.97 21.17c.12 0 .22.1.22.22v1.08c0 .12-.1.22-.22.22s-.22-.1-.22-.22V21.4c0-.13.1-.23.22-.23z"/><path d="M15.19 22.47h.01v.06h-.01v-.06z"/></svg><svg width="30" height="30" x="60" y="180"><path fill="#fff" d="M7.632 23.786c-.293.278-.293.724 0 1.033a.724.724 0 0 0 1.017 0l9.186-9.186a.677.677 0 0 0 .2-.617.796.796 0 0 0-.2-.601L8.649 5.229a.698.698 0 0 0-1.017 0 .724.724 0 0 0 0 1.017l8.786 8.771-8.786 8.771z"/></svg><svg width="30" height="30" x="120" y="180"><path fill="#bcbcbc" d="M9.158 2.351a.766.766 0 0 0-.55.232.796.796 0 0 0 0 1.118l11.114 11.297L8.608 26.292a.803.803 0 0 0 0 1.122.767.767 0 0 0 1.1 0l11.664-11.857a.796.796 0 0 0 0-1.118L9.708 2.584a.768.768 0 0 0-.55-.232z"/></svg><svg width="30" height="30" x="180" y="180"><path fill="#46b1ff" d="M11.685 7.508a.428.428 0 0 0-.312.136.487.487 0 0 0 .001.662l6.313 6.693-6.315 6.691a.487.487 0 0 0 .001.662.425.425 0 0 0 .624.001l6.627-7.022a.487.487 0 0 0-.001-.662l-6.627-7.022a.43.43 0 0 0-.31-.139z"/></svg><svg width="30" height="30" y="240"><path d="M21.557 12.099a.377.377 0 0 0-.12-.273.427.427 0 0 0-.581 0l-5.861 5.51-5.861-5.51a.427.427 0 0 0-.58 0 .37.37 0 0 0 0 .546l6.148 5.78a.427.427 0 0 0 .58 0l6.151-5.783a.375.375 0 0 0 .123-.271z"/></svg><svg width="30" height="30" x="60" y="240"><path d="M21.544 17.886a.373.373 0 0 1-.12.273.427.427 0 0 1-.58 0l-5.861-5.514-5.857 5.513a.427.427 0 0 1-.58 0 .37.37 0 0 1 0-.546l6.147-5.786a.427.427 0 0 1 .58 0l6.146 5.786a.374.374 0 0 1 .125.274z"/></svg><svg width="30" height="30" x="120" y="240"><path fill="#fff" d="M5.8 7.07s5.32.62 8.37-2.32c0 0 .22-.23.83-.23v20.53h-1.33s-4.39-.95-7.31-7c-.36-.76-.55-1.57-.55-2.4L5.8 7.07z"/><path fill="#fff" d="M13.67 25.05s-.09-.06 1.33.43v-2.05l-1.33 1.62z"/><path fill="#fff" d="M13.67 25.05s.31.17 1.33.43l-1.07-.75-.26.32z"/><path fill="#fff" d="M13.37 24.96l.43.15-.04-.17zM24.2 7.07s-5.32.62-8.37-2.32c0 0-.22-.23-.83-.23v20.53h1.33s4.39-.95 7.31-7c.36-.76.55-1.57.55-2.4l.01-8.58z"/><path fill="#fff" d="M16.33 25.05s.09-.06-1.33.43v-2.05l1.33 1.62z"/><path fill="#fff" d="M16.33 25.05s-.31.17-1.33.43l1.07-.75.26.32z"/><path fill="#fff" d="M16.63 24.96l-.43.15.04-.17z"/><path fill="#77c215" opacity=".9" d="M7.29 8.36s4.52.53 7.1-1.97c0 0 .19-.19.71-.19v17.43h-1.13s-3.73-.8-6.21-5.94c-.31-.64-.47-1.34-.47-2.04V8.36z"/><path fill="#77c215" d="M13.97 23.63s-.08-.05 1.13.37v-1.74l-1.13 1.37z"/><path fill="#77c215" d="M13.97 23.63s.26.15 1.13.37l-.91-.64-.22.27z"/><path fill="#77c215" d="M13.71 23.56l.36.12-.03-.14zM22.71 8.36s-4.52.53-7.1-1.97c0 0-.19-.19-.71-.19v17.43h1.13s3.73-.8 6.21-5.94c.31-.64.47-1.34.47-2.04V8.36z"/><path fill="#77c215" d="M16.03 23.63s.08-.05-1.13.37v-1.74l1.13 1.37z"/><path fill="#77c215" d="M16.03 23.63s-.26.15-1.13.37l.91-.64.22.27z"/><path fill="#77c215" d="M16.29 23.56l-.36.12.03-.14z"/><path fill="#fff" d="M19.08 13.83h-8.35c-.46 0-.83-.37-.83-.83v-.09c0-.46.37-.83.83-.83h8.35c.46 0 .83.37.83.83V13c0 .45-.38.83-.83.83z"/><path fill="#fff" d="M15.7 10.52v8.32c0 .45-.37.81-.81.81h-.09c-.45 0-.81-.37-.81-.81v-8.32c0-.45.37-.81.81-.81h.09a.8.8 0 0 1 .81.81z"/></svg><svg width="30" height="30" x="180" y="240"><path fill="#fff" d="M30 15c0 8.284-6.716 15-15 15S0 23.284 0 15C0 6.716 6.716 0 15 0s15 6.716 15 15z"/><path fill="#bebebe" d="M11.976 18.462l.399.399 6.486-6.488-.399-.399zm.397-6.486l-.399.399 6.488 6.486.399-.399zm7.095-1.138l.531.531L11.368 20l-.531-.531zm.531 8.63l-.531.531-8.631-8.631.531-.531z"/></svg><svg width="30" height="30" y="300"><path fill="#dadada" d="M10.548 5.399a.585.585 0 0 0-.419.176.604.604 0 0 0 0 .848l8.468 8.575-8.468 8.575a.604.604 0 0 0 0 .848.583.583 0 0 0 .838 0l8.887-8.998a.604.604 0 0 0 0-.848l-8.887-8.999a.582.582 0 0 0-.418-.176h-.001z"/></svg></svg>