<svg id="图层_1" xmlns="http://www.w3.org/2000/svg" viewBox="0 0 300 300"><style>.st0{fill:#ffeee4}</style><path class="st0" d="M195.3 70v154h-90.7V70h90.7m1-13h-92.7c-6.6 0-12 5.4-12 12v156c0 6.6 5.4 12 12 12h92.7c6.6 0 12-5.4 12-12V69c0-6.6-5.4-12-12-12z"/><path class="st0" d="M203 210.3H101v18h102v-18z"/><circle cx="150.2" cy="223.8" r="4.5" fill="#fa8d5f"/><path fill="none" stroke="#ffeee4" stroke-width="13" stroke-miterlimit="10" d="M99 66.9h102"/><path d="M179.1 103.1L159 140.5h16v8.3h-19v11.4h18.8v8.3H156V185h-10.3v-16.7h-19.2V160h19.4v-11.4h-19.2v-8.3H143l-20.1-37.2h11.9l14 29c.8 1.6 1.6 3.7 2.7 6.1h.2c.6-2.1 1.6-4 2.7-6.4l14-28.7h11.1-.4z" fill="#fff"/></svg>